<?xml version="1.0" encoding="iso-8859-1"?>
<!-- Generator: Adobe Illustrator 19.0.0, SVG Export Plug-In . SVG Version: 6.00 Build 0)  -->
<svg version="1.1" id="Layer_1" xmlns="http://www.w3.org/2000/svg" xmlns:xlink="http://www.w3.org/1999/xlink" x="0px" y="0px"
	 viewBox="0 0 512 512" style="enable-background:new 0 0 512 512;" xml:space="preserve">
<path style="fill:#ACABB1;" d="M158.067,237.901c-21.517-17.524-46.535-21.812-63.733-22.323c-4.14-0.123-7.398-3.579-7.274-7.719
	c0.123-4.14,3.586-7.403,7.72-7.274c19.518,0.58,47.985,5.506,72.761,25.686c3.212,2.616,3.771,7.405,1.079,10.552
	C164.67,241.438,159.459,239.034,158.067,237.901z"/>
<path style="fill:#5EAC24;" d="M175.913,162.662l-22.217,49.763l42.419,28.072c12.033,7.963,27.478,8.632,40.154,1.739
	l42.473-23.097L175.913,162.662z"/>
<polygon style="fill:#4E901E;" points="175.913,162.662 153.696,212.425 195.078,239.81 218.965,186.306 "/>
<path style="fill:#898890;" d="M261.645,358.48h-31.518c-7.649,0-13.907-6.258-13.907-13.907v-70.154
	c0-7.649,6.258-13.907,13.907-13.907h31.518c7.649,0,13.907,6.258,13.907,13.907v70.154
	C275.553,352.221,269.294,358.48,261.645,358.48z"/>
<path style="fill:#787680;" d="M245.887,344.979V274.01c0-7.425,6.075-13.501,13.499-13.501H229.72
	c-7.426,0-13.499,6.075-13.499,13.501v70.969c0,7.426,6.075,13.5,13.499,13.5h29.667
	C251.962,358.48,245.887,352.405,245.887,344.979z"/>
<path style="fill:#ACABB1;" d="M325.844,375.037l-68.531,14.584c-11.686,2.487-23.176-4.971-25.663-16.657l-8.146-38.273
	c-2.487-11.686,4.971-23.176,16.657-25.663l68.531-14.584c11.686-2.487,23.176,4.971,25.663,16.657l8.146,38.273
	C344.988,361.059,337.531,372.549,325.844,375.037z"/>
<circle style="fill:#898890;" cx="264.911" cy="338.322" r="19.027"/>
<path style="fill:#787680;" d="M263.976,333.654c0-5.385,2.247-10.238,5.842-13.699c-1.567-0.417-3.206-0.661-4.904-0.661
	c-10.509,0-19.027,8.519-19.027,19.027c0,10.509,8.519,19.027,19.027,19.027c5.123,0,9.764-2.035,13.185-5.328
	C269.971,349.854,263.976,342.464,263.976,333.654z"/>
<path style="fill:#3E3D42;" d="M92.516,238.366C41.422,238.366,0,279.786,0,330.882s41.422,92.516,92.516,92.516
	s92.516-41.422,92.516-92.516C185.034,279.786,143.612,238.366,92.516,238.366z M92.516,395.532c-35.648,0-64.65-29.002-64.65-64.65
	s29.002-64.65,64.65-64.65s64.65,29.002,64.65,64.65S128.165,395.532,92.516,395.532z"/>
<path style="fill:#2D2D30;" d="M92.516,251.232c-43.919,0-79.651,35.731-79.651,79.65s35.732,79.651,79.651,79.651
	s79.651-35.731,79.651-79.651S136.436,251.232,92.516,251.232z M92.516,395.532c-35.648,0-64.65-29.002-64.65-64.65
	s29.002-64.65,64.65-64.65s64.65,29.002,64.65,64.65S128.165,395.532,92.516,395.532z"/>
<path style="fill:#3E3D42;" d="M342.346,232.451c-47.89,0-87.018-28.704-88.997-30.18c-7.618-5.685-9.185-16.469-3.502-24.088
	c5.677-7.609,16.442-9.181,24.057-3.524c0.759,0.555,46.064,33.295,90.291,20.308c9.119-2.678,18.685,2.545,21.363,11.665
	c2.678,9.12-2.544,18.685-11.665,21.363C363.163,231.146,352.555,232.451,342.346,232.451z"/>
<path style="fill:#2D2D30;" d="M287.457,182.865c-8.247-4.367-13.304-8.023-13.553-8.205c-7.615-5.658-18.379-4.085-24.057,3.523
	c-5.685,7.618-4.117,18.402,3.502,24.088c1.978,1.476,41.107,30.18,88.996,30.18c10.209,0,20.817-1.305,31.547-4.457
	c2.982-0.876,5.536-2.497,7.545-4.588c-47.168-0.619-85.467-28.691-87.423-30.151C290.479,190.616,288.265,186.875,287.457,182.865z
	"/>
<rect x="294.415" y="231.863" style="fill:#C6C5CA;" width="15" height="143.504"/>
<circle style="fill:#D8D7DA;" cx="419.479" cy="330.884" r="34.667"/>
<path style="fill:#6DC82A;" d="M419.484,243.365c11.76,0,22.982,2.337,33.236,6.562l21.305-7.913
	c9.1-3.246,9.872-15.762,1.279-20.178c-16.75-8.609-35.729-13.472-55.821-13.472c-60.561,0-110.998,44.17-120.793,101.986
	c-1.394,8.228,6.532,14.95,14.426,12.241c6.95-2.385,14.167-4.915,20.198-7.045C340.585,274.576,376.457,243.365,419.484,243.365z"
	/>
<path style="fill:#5EAC24;" d="M419.484,223.365c-56.573,0-102.231,43.692-106.368,99.226c0.282-0.073,14.167-4.915,20.198-7.045
	c7.271-40.97,43.144-72.181,86.169-72.181c11.76,0,22.982,2.337,33.236,6.562l21.305-7.913c1.227-0.438,2.289-1.054,3.21-1.785
	C460.543,229.558,440.723,223.365,419.484,223.365z"/>
<path style="fill:#3E3D42;" d="M419.484,238.366c-51.096,0-92.516,41.422-92.516,92.516c0,51.096,41.422,92.516,92.516,92.516
	c51.096,0,92.516-41.422,92.516-92.516C512,279.786,470.578,238.366,419.484,238.366z M419.483,395.532
	c-35.648,0-64.65-29.002-64.65-64.65s29.002-64.65,64.65-64.65s64.65,29.002,64.65,64.65S455.132,395.532,419.483,395.532z"/>
<path style="fill:#2D2D30;" d="M419.484,251.232c-43.919,0-79.651,35.731-79.651,79.65s35.732,79.651,79.651,79.651
	s79.651-35.731,79.651-79.651C499.134,286.962,463.402,251.232,419.484,251.232z M419.484,395.532
	c-35.648,0-64.65-29.002-64.65-64.65s29.002-64.65,64.65-64.65s64.65,29.002,64.65,64.65S455.132,395.532,419.484,395.532z"/>
<path style="fill:#ACABB1;" d="M419.484,326.793c-4.142,0-7.5-3.358-7.5-7.5V202.842c0-4.142,3.357-7.5,7.5-7.5
	c4.142,0,7.5,3.358,7.5,7.5v116.452C426.983,323.436,423.626,326.793,419.484,326.793z"/>
<path style="fill:#C6C5CA;" d="M257.747,392.335L257.747,392.335c-14.99,0-28.923-8.711-35.495-22.191l-92.074-188.841
	l13.605-44.845L403.059,278.86c14.756,8.104,23.924,23.597,23.924,40.434c0,12.863-7.593,38.839-36.334,45.085l-124.504,27.054
	C263.385,392.032,260.56,392.335,257.747,392.335z M146.242,180.022l89.492,183.547c4.077,8.362,12.718,13.765,22.013,13.765h0.001
	c1.743,0,3.496-0.189,5.211-0.561l124.504-27.054c23.986-5.212,24.51-29.435,24.52-30.463c0-11.324-6.186-21.779-16.145-27.248
	l-243.07-133.501L146.242,180.022z"/>
<path style="fill:#D8D7DA;" d="M92.521,342.032c-1.072,0-2.161-0.156-3.241-0.483c-5.892-1.787-9.218-8.012-7.431-13.902
	l64.147-211.45c1.786-5.892,8.014-9.217,13.902-7.431c5.892,1.787,9.218,8.012,7.431,13.902l-64.146,211.45
	C101.723,338.931,97.302,342.032,92.521,342.032z"/>
<g>
	<path style="fill:#C6C5CA;" d="M93,329.688l64.147-211.45c1.054-3.477,3.659-6.048,6.825-7.214c-1.15-1-2.519-1.786-4.071-2.258
		c-5.89-1.786-12.116,1.539-13.903,7.431L81.85,327.646c-1.787,5.891,1.539,12.115,7.431,13.902
		c1.079,0.328,2.169,0.483,3.241,0.483c1.328,0,2.625-0.247,3.842-0.695C93.148,338.541,91.683,334.027,93,329.688z"/>
	<path style="fill:#C6C5CA;" d="M157.705,131.271c-3.469,0-6.897-1.563-9.16-4.536c-3.847-5.054-2.867-12.269,2.187-16.116
		c1.36-1.034,33.811-25.306,77.144-21.641c6.329,0.535,11.025,6.099,10.49,12.428c-0.535,6.329-6.096,11.02-12.428,10.49
		c-34.624-2.925-61.017,16.826-61.279,17.026C162.58,130.506,160.132,131.271,157.705,131.271z"/>
</g>
<path style="fill:#ACABB1;" d="M158.233,119.286c1.36-1.034,33.811-25.306,77.144-21.641c0.984,0.083,1.922,0.301,2.813,0.611
	c-0.951-4.928-5.065-8.834-10.314-9.278c-43.334-3.665-75.785,20.607-77.144,21.641c-5.055,3.847-6.034,11.061-2.187,16.116
	c1.423,1.87,3.308,3.18,5.373,3.896C153.113,126.472,154.633,122.025,158.233,119.286z"/>
<path style="fill:#3E3D42;" d="M198.918,113.908c8.078-1.849,17.219-2.84,27.023-2.012c6.333,0.53,11.893-4.161,12.428-10.49
	c0.535-6.328-4.161-11.892-10.49-12.428c-12.109-1.024-23.366,0.135-33.334,2.357L198.918,113.908z"/>
<path style="fill:#2D2D30;" d="M235.378,97.645c0.984,0.083,1.922,0.301,2.813,0.611c-0.951-4.928-5.065-8.834-10.314-9.278
	c-12.109-1.024-23.366,0.135-33.334,2.357l1.948,10.053C207.757,98.306,220.958,96.425,235.378,97.645z"/>
<g>
</g>
<g>
</g>
<g>
</g>
<g>
</g>
<g>
</g>
<g>
</g>
<g>
</g>
<g>
</g>
<g>
</g>
<g>
</g>
<g>
</g>
<g>
</g>
<g>
</g>
<g>
</g>
<g>
</g>
</svg>
