<?xml version="1.0" encoding="iso-8859-1"?>
<!-- Generator: Adobe Illustrator 19.0.0, SVG Export Plug-In . SVG Version: 6.00 Build 0)  -->
<svg version="1.1" id="Capa_1" xmlns="http://www.w3.org/2000/svg" xmlns:xlink="http://www.w3.org/1999/xlink" x="0px" y="0px"
	 viewBox="0 0 387.393 387.393" style="enable-background:new 0 0 387.393 387.393;" xml:space="preserve">
<polygon style="fill:#FFCE57;" points="202.193,122.097 181.793,83.297 153.393,83.297 134.593,122.097 "/>
<polygon style="fill:#FFD985;" points="153.393,83.297 134.593,122.097 153.393,122.097 171.793,83.297 "/>
<path style="fill:#FFCE57;" d="M340.593,267.297c24.8,0,40.8,0,40.8,0v-54c0,0-32-40.4-102.8-40.4c0,0-25.2-50.8-70.8-50.8
	s-82.8,0-82.8,0s-39.2-3.2-79.6,50.8h-35.6c0,0-20.4,94.4,28.8,94.4c2.8,0,6,0,10,0H340.593z"/>
<g>
	<path style="fill:#FFD985;" d="M149.393,122.097c-15.2,0-24.8,0-24.8,0s-38.8-3.2-79.2,50.8h27.6
		C106.993,127.297,139.793,122.497,149.393,122.097z"/>
	<path style="fill:#FFD985;" d="M37.393,172.897h-27.6c0,0-20.4,94.4,28.8,94.4c2.8,0,6,0,10,0h17.2
		C16.993,267.297,37.393,172.897,37.393,172.897z"/>
</g>
<path style="fill:#424953;" d="M281.793,166.497c-6.8-12-32.4-50.8-74.8-50.8h-1.2l-18.4-35.6c-1.2-2-3.2-3.2-5.6-3.2h-28.4
	c-2.4,0-4.8,1.2-5.6,3.6l-16.8,35.2h-5.6c-1.6,0-41.6-2.8-82.8,50.4h-32.4c-2.8,0-5.6,2-6,5.2c-0.4,2.4-13.2,63.2,8,89.6
	c6.8,8.4,15.6,12.4,26.8,12.4h8.8c3.2,21.2,21.2,37.2,43.2,37.2s40-16.4,43.2-37.2h123.2c3.2,21.2,21.2,37.2,43.2,37.2
	s40-16.4,43.2-37.2h37.2c3.6,0,6.4-2.8,6.4-6.4v-53.6c0-1.6-0.4-2.8-1.2-4C384.593,207.697,352.193,168.097,281.793,166.497z
	 M266.993,166.497h-92v-38h32.4C236.993,128.497,257.393,152.897,266.993,166.497z M157.393,89.697h20.8l13.6,26h-23.2l0,0l0,0
	h-23.6L157.393,89.697z M124.593,128.497h37.6v38h-103.6C92.993,126.897,123.793,128.497,124.593,128.497z M374.593,260.897h-30.8
	c-3.2-21.2-21.2-37.2-43.2-37.2s-40,16.4-43.2,37.2h-123.6c-3.2-21.2-21.2-37.2-43.2-37.2s-40,16.4-43.2,37.2h-8.8
	c-7.2,0-12.8-2.4-16.8-7.6c-13.2-16.4-9.6-55.2-6.4-74h30h232.8c58.8,0,90,29.6,96.4,36.4L374.593,260.897L374.593,260.897z"/>
<g>
	<path style="fill:#A7D9E8;" d="M124.593,128.497c-0.8,0-31.6-1.6-66,38h103.6v-38H124.593z"/>
	<path style="fill:#A7D9E8;" d="M207.393,128.497h-32.4v38h92C257.393,152.897,236.993,128.497,207.393,128.497z"/>
</g>
<g>
	<polygon style="fill:#C3DFE5;" points="117.793,166.497 127.793,166.497 146.993,128.497 136.993,128.497 	"/>
	<path style="fill:#C3DFE5;" d="M96.193,166.497h10l19.2-38h-0.4c-0.4,0-4,0-10,1.2L96.193,166.497z"/>
	<path style="fill:#C3DFE5;" d="M188.193,166.497h10l18.8-37.2c-3.2-0.4-6-0.8-9.2-0.8L188.193,166.497z"/>
	<path style="fill:#C3DFE5;" d="M134.993,128.497h-10.4c-0.8,0-31.6-1.6-66,38h12C100.593,132.097,128.193,128.897,134.993,128.497z
		"/>
	<rect x="174.993" y="128.497" style="fill:#C3DFE5;" width="12" height="38"/>
</g>
<g>
	<circle style="fill:#E6E9EE;" cx="90.593" cy="267.297" r="18.4"/>
	<circle style="fill:#E6E9EE;" cx="300.593" cy="267.297" r="18.4"/>
</g>
<g>
	<path style="fill:#FFFFFF;" d="M80.593,267.297c0-8.8,6-16,14-18c-1.2-0.4-2.8-0.4-4.4-0.4c-10,0-18.4,8.4-18.4,18.4
		s8.4,18.4,18.4,18.4c1.6,0,2.8-0.4,4.4-0.4C86.593,283.297,80.593,276.097,80.593,267.297z"/>
	<path style="fill:#FFFFFF;" d="M290.593,267.297c0-8.8,6-16,14-18c-1.2-0.4-2.8-0.4-4.4-0.4c-10,0-18.4,8.4-18.4,18.4
		s8.4,18.4,18.4,18.4c1.6,0,2.8-0.4,4.4-0.4C296.593,283.297,290.593,276.097,290.593,267.297z"/>
</g>
<g>
</g>
<g>
</g>
<g>
</g>
<g>
</g>
<g>
</g>
<g>
</g>
<g>
</g>
<g>
</g>
<g>
</g>
<g>
</g>
<g>
</g>
<g>
</g>
<g>
</g>
<g>
</g>
<g>
</g>
</svg>
