<?xml version="1.0" encoding="iso-8859-1"?>
<!-- Generator: Adobe Illustrator 19.0.0, SVG Export Plug-In . SVG Version: 6.00 Build 0)  -->
<svg version="1.1" id="Capa_1" xmlns="http://www.w3.org/2000/svg" xmlns:xlink="http://www.w3.org/1999/xlink" x="0px" y="0px"
	 viewBox="0 0 512.001 512.001" style="enable-background:new 0 0 512.001 512.001;" xml:space="preserve">
<circle style="fill:#FFFFFF;" cx="107.421" cy="439.56" r="13.667"/>
<path style="fill:#FED9A8;" d="M273.521,250.394c-11.481,11.481-24.519,24.522-31.706,31.713c-3.516,3.518-8.283,5.494-13.317,5.494
	h-0.259c-8.308,0-18.037-8.044-20.18-16.07l-0.005-72.678l26.775-22.033l30.447-4.673c0,0,51.637-10.226,67.021-17.444
	c3.857-1.81,12.031-27.232-7.885-29.24c-23.245-2.118-76.671-8.462-90.614-10.132c-9.565-1.146-19.181,1.683-26.604,7.824
	l-67.948,56.213c-9.795,8.103-16.856,19.023-20.239,31.277c-7.577,27.446-22.08,77.453-32.21,96.759l-50.603,50.603l87.608,87.608
	l24.365-24.365c4.579-4.579,10.242-7.926,16.462-9.73l50.887-17.135c15.986-5.484,30.058-15.449,40.541-28.706l25.757-32.575
	l75.293-75.293c8.677-8.677,12.366-19.055,3.689-27.732C347.121,213.097,297.201,226.714,273.521,250.394z"/>
<path style="fill:#F4C892;" d="M290.237,295.235c0,0-54.831,54.191-109.919,63.949l-50.887,17.135
	c-6.22,1.804-11.883,5.151-16.462,9.73l-24.365,24.365l35.199,35.199l24.365-24.365c4.579-4.579,10.242-7.926,16.462-9.73
	l50.887-17.135c15.986-5.484,30.058-15.449,40.541-28.706l25.757-32.575l75.293-75.293c8.426-8.426,12.146-18.457,4.407-26.976
	L290.237,295.235z"/>
<path style="fill:#2C5871;" d="M104.218,479.022L2.819,377.623c-3.758-3.758-3.758-9.85,0-13.608l27.992-27.992
	c3.758-3.758,9.85-3.758,13.608,0l101.399,101.399c3.758,3.758,3.758,9.85,0,13.608l-27.992,27.992
	C114.069,482.78,107.976,482.78,104.218,479.022z"/>
<path style="fill:#1D4859;" d="M145.818,437.422L44.418,336.023c-3.758-3.758-9.85-3.758-13.608,0l-20.092,20.092
	c3.758-3.758,9.85-3.758,13.608,0l101.399,101.399c3.758,3.758,3.758,9.85,0,13.608l20.092-20.092
	C149.576,447.272,149.576,441.18,145.818,437.422z"/>
<circle style="fill:#FFFFFF;" cx="107.421" cy="439.56" r="13.667"/>
<path style="fill:#FFB125;" d="M218.751,229.892l23.139,7.92l8.181,23.049l23.139,7.92l8.18,23.048l23.137,7.918l8.18,23.048
	l19.84,7.761c2.287,0.895,4.888,0.349,6.622-1.39l171.029-171.512c2.415-2.422,2.401-6.346-0.031-8.751L391.882,31.944
	c-2.418-2.391-6.313-2.377-8.714,0.031l-171.04,171.523c-1.748,1.753-2.28,4.38-1.352,6.675L218.751,229.892z"/>
<path style="fill:#FF901D;" d="M510.167,148.902l-31.188-30.838c1.335,2.352,1.03,5.386-0.975,7.396L306.975,296.972
	c-1.498,1.502-3.641,2.109-5.672,1.671l3.223,1.103l8.18,23.048l19.84,7.761c2.287,0.895,4.888,0.349,6.622-1.39l171.029-171.512
	C512.613,155.231,512.599,151.307,510.167,148.902z"/>
<g>
	<path style="fill:#FFFFFF;" d="M401.457,104.441c1.645-1.664,4.638-1.681,7.014,0.67l15.924,15.744
		c10.061,9.949,13.205,22.615,0.359,35.606l-0.47,0.477c-12.846,12.991-25.941,9.913-36.398-0.426l-8.873-8.773l-18.173,18.38
		c-2.115,2.139-5.826,0.663-8.361-1.843c-2.614-2.585-4.052-6.201-1.938-8.34L401.457,104.441z M405.96,120.487l-18.957,19.171
		l8.873,8.773c5.149,5.092,11.217,5.294,17.327-0.886l0.94-0.95c6.11-6.179,5.84-12.243,0.69-17.335L405.96,120.487z"/>
	<path style="fill:#FFFFFF;" d="M299.491,160.452c-2.928-2.928-2.945-7.676-0.029-10.625c2.925-2.959,7.696-2.986,10.655-0.06
		l81.673,80.758c0.01,0.01,0.02,0.02,0.031,0.031c2.928,2.928,2.945,7.676,0.029,10.625c-2.925,2.959-7.696,2.986-10.655,0.06
		l-81.673-80.758C299.511,160.472,299.501,160.462,299.491,160.452z"/>
	<path style="fill:#FFFFFF;" d="M266.999,193.312c-2.928-2.928-2.945-7.676-0.029-10.625c2.925-2.959,7.696-2.986,10.655-0.06
		l81.674,80.757c0.01,0.01,0.02,0.02,0.031,0.031c2.928,2.928,2.945,7.676,0.029,10.625c-2.925,2.959-7.696,2.986-10.655,0.06
		l-81.674-80.757C267.02,193.333,267.009,193.323,266.999,193.312z"/>
</g>
<path style="fill:#FED9A8;" d="M357.107,257.81c8.677-8.677,12.366-19.055,3.689-27.732c-13.675-16.982-63.596-3.364-87.276,20.316
	c-11.18,11.18-23.821,23.824-31.113,31.12l29.465,64.163l9.943-12.574L357.107,257.81z"/>
<path style="fill:#F4C892;" d="M365.735,240.697c-0.004-0.179-0.011-0.359-0.022-0.538c-0.007-0.11-0.016-0.22-0.026-0.331
	c-0.016-0.181-0.033-0.362-0.056-0.543c-0.013-0.107-0.03-0.214-0.046-0.32c-0.028-0.183-0.057-0.367-0.092-0.55
	c-0.02-0.104-0.043-0.207-0.066-0.311c-0.04-0.185-0.082-0.371-0.13-0.555c-0.026-0.1-0.056-0.199-0.084-0.299
	c-0.053-0.188-0.108-0.376-0.17-0.563c-0.032-0.095-0.067-0.191-0.101-0.286c-0.068-0.191-0.137-0.381-0.213-0.571
	c-0.037-0.09-0.078-0.18-0.116-0.271c-0.083-0.194-0.167-0.387-0.259-0.579c-0.041-0.085-0.086-0.17-0.129-0.255
	c-0.099-0.197-0.199-0.394-0.309-0.59c-0.043-0.077-0.091-0.154-0.136-0.231c-0.118-0.202-0.237-0.405-0.366-0.606
	c-0.044-0.068-0.092-0.136-0.137-0.204c-0.139-0.21-0.279-0.419-0.43-0.627c-0.039-0.054-0.082-0.107-0.122-0.16
	c-0.165-0.221-0.332-0.442-0.511-0.662c-0.027-0.033-0.058-0.066-0.085-0.1c-0.197-0.239-0.4-0.476-0.614-0.713l-71.277,64.402
	c0,0-11.813,11.672-29.976,25.157l11.611,25.285l9.943-12.574l75.293-75.293c0.03-0.03,0.058-0.06,0.087-0.089
	c0.236-0.237,0.47-0.476,0.698-0.716c0.101-0.106,0.197-0.212,0.296-0.318c0.154-0.165,0.31-0.33,0.461-0.496
	c0.11-0.121,0.215-0.244,0.323-0.366c0.135-0.153,0.272-0.305,0.403-0.458c0.111-0.13,0.218-0.26,0.327-0.39
	c0.122-0.146,0.247-0.293,0.366-0.44c0.11-0.136,0.216-0.272,0.323-0.409c0.113-0.143,0.227-0.286,0.337-0.43
	c0.106-0.139,0.208-0.279,0.311-0.418c0.105-0.142,0.212-0.284,0.314-0.426c0.103-0.143,0.201-0.288,0.301-0.432
	c0.096-0.139,0.194-0.278,0.288-0.418c0.098-0.147,0.192-0.295,0.288-0.443c0.089-0.138,0.178-0.275,0.264-0.413
	c0.093-0.15,0.182-0.3,0.271-0.45c0.081-0.137,0.163-0.273,0.242-0.41c0.087-0.153,0.171-0.307,0.254-0.46
	c0.073-0.135,0.147-0.269,0.218-0.404c0.081-0.156,0.159-0.312,0.236-0.469c0.066-0.133,0.132-0.265,0.195-0.398
	c0.076-0.16,0.147-0.32,0.218-0.48c0.058-0.13,0.115-0.259,0.17-0.389c0.069-0.162,0.133-0.325,0.197-0.488
	c0.051-0.129,0.101-0.257,0.149-0.386c0.061-0.164,0.118-0.328,0.173-0.492c0.043-0.127,0.086-0.255,0.127-0.382
	c0.053-0.167,0.102-0.334,0.15-0.501c0.036-0.124,0.071-0.249,0.104-0.373c0.045-0.169,0.086-0.338,0.125-0.507
	c0.029-0.123,0.056-0.246,0.082-0.369c0.036-0.171,0.068-0.342,0.099-0.513c0.021-0.12,0.041-0.241,0.06-0.362
	c0.027-0.173,0.05-0.347,0.071-0.52c0.014-0.118,0.026-0.236,0.038-0.353c0.017-0.175,0.031-0.351,0.041-0.526
	c0.007-0.116,0.012-0.232,0.016-0.348c0.006-0.177,0.01-0.354,0.01-0.531C365.74,240.923,365.738,240.81,365.735,240.697z"/>
<path style="fill:#FFEFDE;" d="M354.132,255.466c-9.993-9.993-26.194-9.993-36.187,0l-11.368,11.368
	c-5.144,5.144-5.144,13.484,0,18.629l11.439,11.439l38.776-38.776L354.132,255.466z"/>
<g>
</g>
<g>
</g>
<g>
</g>
<g>
</g>
<g>
</g>
<g>
</g>
<g>
</g>
<g>
</g>
<g>
</g>
<g>
</g>
<g>
</g>
<g>
</g>
<g>
</g>
<g>
</g>
<g>
</g>
</svg>
